<svg xmlns="http://www.w3.org/2000/svg" viewBox="0 0 1000 260.51"><g id="Layer_7" data-name="Layer 7"><path d="M142.3,62.9c-9.27,9.27-11.53,24.72-.41,24.72,14,0,41.19-62.61,15.24-62.61-62.4,0-172.39,203.5-110.6,203.5,29,0,90.49-52,105-66.54,2.47,6.18-1.43,14.89-1.22,18.6C142.31,194.32,84.84,252,40.44,252-68.43,252,66.92.29,159.6.29c61,0,22.25,116.57-21,116.57-30.9,0-28-39.94-11.54-56.4C133.66,53.86,149.1,56.1,142.3,62.9Z"/><path d="M208.64,150.39c7.18-7.19,9-21.83,2.87-21.83-14.67,0-42.55,47.21-30.9,47.21,10.92,0,42-44,46.77-48.73s29.86-1.85,22.65,5.35-30.28,46.88-23.28,46.88c12.83,0,40.25-38.35,40.25-38.35l-8.53,32s-26.37,36.42-44.15,36.42c-30.41,0-13.34-40.54-13.34-40.54l7.23-.41s-21.83,41.31-44.64,41.31c-52.27,0,7-103.52,49.17-103.52,26.41,0,20.7,37.1,9.07,48.74C213.16,163.54,202.72,156.3,208.64,150.39Z"/><path d="M398.42,209.05c22.81,0,45.65-41.93,45.65-41.93l-4.75-.82s-18.93,42.39,11.48,42.39c20.44,0,56.68-49.49,56.68-49.49l-4.62-19.51s-26.18,41.44-39,41.44c-11.45,0,19.43-55.53,26.64-62.74s-17.91-10.1-22.65-5.36-44,64.39-54.9,64.39c-11.12,0,18.76-42.94,18.76-53.94,0-13.89-23.79-18.36-23.79-9.7s-29.43,59-29.43,72.42S383,209.05,398.42,209.05Z"/><path d="M308.74,148.26c3.71-3.71,4.81-12.34,1-12.34-15,0-45,47.66-27.71,47.66,27.09,0,62.84-45.09,62.84-45.09L340,161.3s-33.71,48.37-70,48.37c-55.68,0-.49-99,43-99,15.64,0,19.42,28.82,7.88,40.35C312.64,159.28,304.66,152.34,308.74,148.26Z"/><path d="M398.37,64.76c0,9.89-57.34,119-43.75,119,9.89,0,39.17-35.27,39.17-35.27l-1.86,21S363,208.92,347.4,208.92c-16.54,0-19.68-10.84-19.68-23.58,0-25.92,54-125.53,54-133.53C381.73,42.78,398.37,52,398.37,64.76Z"/><path d="M632.74,64.12c0,9.89-62,135-62,149C570.72,224,550,215.75,550,203c0-25.92,66.12-143.82,66.12-151.82C616.1,42.15,632.74,51.33,632.74,64.12Z"/><path d="M686,135.38c10.41,0,30.87-25.72-.39-25.72s-113,2.17-133,2.17c-5.32,0-4.95,17.38,13.69,17.38C578.91,129.21,673.74,135.38,686,135.38Z"/><path d="M613.28,253c0-34.05,81.92-202.41,81.92-212.29,0-12.8-16.64-22-16.64-12.95,0,8-83.81,173.8-83.81,212.66C594.75,253.16,613.28,270.72,613.28,253Z"/><path d="M539.88,111.28c-12.77,6.39-17.41,18.45-17.41,29.16,0,12.45,19.68,44.3,4,59.95-21.26,21.25-43.05-5.07-49.23-15.72-4.7-8.1,1.69-15.17,10.3-6.57s16,12.3,21.25,7-8.48-23.58-8.48-45.83c0-14.54,6.54-27.57,18.12-33.36C529.58,100.37,548.74,106.85,539.88,111.28Z"/><path d="M902.8,116c-12.77,6.38-17.41,18.44-17.41,29.15,0,12.45,12.83,39-2.83,54.62-21.25,21.26-43-5.07-49.22-15.72-4.71-8.1,1.69-15.17,10.3-6.56s16,12.29,21.25,7-1.64-18.25-1.64-40.49c0-14.54,6.54-27.58,18.13-33.37C892.5,105.06,911.65,111.55,902.8,116Z"/><path d="M218.76,70.87c15.16,0,210.39,2.16,237,2.16,19.16,0,3.09,23.48-15.44,23.48-14.42,0-206.27-8.84-216.49-8.84C210.27,87.67,209.6,70.87,218.76,70.87Z"/><path d="M721.07,126.38c-16.47,0-39.44,58.91-24.71,58.91s34-38.72,30.07-62.2c18.12,0,43.14-9,47-12.77,4.19-4.19,22-1.07,22,9.63,0,8-35.83,58.06-24.71,58.06,9.89,0,34.65-25.59,34.65-25.59L798.93,174S773.8,208,754,208c-10.3,0-15.88-9.1-15.88-16.51,0-22.85,29.83-57.72,26-61.57-2.33-2.33-21.53,6.38-39.75,6.38-16.38,0-17.26-28,4.13-28,28.41,0,2.46,99-38.46,99-13.28,0-22.93-8.42-22.93-26.13,0-30.07,30.08-71.16,39.55-71.16C720.49,110,730.1,126.38,721.07,126.38Z"/><path d="M853.38,120c-6.74,6.74-43.42,61.68-27.77,61.68,10.87,0,42.95-33.85,42.95-33.85l1.36,12.8S838,207.64,813.23,207.64c-14,0-19.66-9.21-19.66-18.79,0-25,31.11-70.54,34.41-73.84C833.54,109.45,859.79,113.54,853.38,120Z"/><path d="M924.18,208.67c28.42,0,75.82-32.78,75.82-61.51,0-21.94-22.71-17.22-17.61-12.12,7.72,7.72-23.83,54.07-55.67,54.07-13.91,0,0-59.87,21-59.87,9.89,0-1.53,24.41-9.88,24.41-9.17,0-7.72-11.45-7.72-11.45L923.33,158S921.47,174,937.53,174c20.4,0,30.27-25.35,30.27-41.71,0-13-7.72-23.48-20.08-23.48C907.56,108.85,870.2,208.67,924.18,208.67Z"/><path d="M152.61,232.41c32.69-3.3,278.76-4.34,389.54-4.34,24.76,0,36.93,25,17.1,25-116.92,0-357.69-4.5-394.77-4.5C150.27,248.57,135.26,234.16,152.61,232.41Z"/><path d="M667.63,259.21a25.2,25.2,0,0,1-3,0,13.53,13.53,0,0,1-1.72-.24,20.09,20.09,0,0,1-3.16-.92,18.74,18.74,0,0,1-2.88-1.4,9.9,9.9,0,0,1-1.24-.85c-.62-.54-1.2-1.05-1.27-1.13s.22-.71.66-1.41l.86-1.37c.44-.7,1-1.55,1.31-1.89l.38-.2a2.42,2.42,0,0,1,1.21-.31,3.13,3.13,0,0,1,1.63.5c.46.28,1,.6,1.55.94a11.85,11.85,0,0,0,1.92.91,6.82,6.82,0,0,0,2.48.4,4.59,4.59,0,0,0,2.92-.81,3,3,0,0,0,1-2.5,2.28,2.28,0,0,0-.51-1.55,4.5,4.5,0,0,0-1.49-1.07,16.38,16.38,0,0,0-2.26-.81c-.88-.24-1.78-.51-2.7-.8a19.89,19.89,0,0,1-2.76-1.11,9.08,9.08,0,0,1-2.47-1.79,8.61,8.61,0,0,1-1.77-2.78,11,11,0,0,1-.67-4.06,9.74,9.74,0,0,1,.79-3.81,9.94,9.94,0,0,1,2.3-3.3,11.39,11.39,0,0,1,3.71-2.31,13.63,13.63,0,0,1,5-.86,17.79,17.79,0,0,1,3,.25,15.52,15.52,0,0,1,2.8.72,15.74,15.74,0,0,1,2.49,1.14,10.5,10.5,0,0,1,.92.57c.64.53,1.23,1,1.31,1.09a3.6,3.6,0,0,1-.57,1.46l-.66,1.23a21.35,21.35,0,0,1-1.27,2.09l-.3.21a2,2,0,0,1-1.25.37,2.83,2.83,0,0,1-1.36-.39l-1.35-.73a10.63,10.63,0,0,0-1.65-.7,6.41,6.41,0,0,0-2-.3,4.32,4.32,0,0,0-2.86.79,2.62,2.62,0,0,0-.88,2.09,1.76,1.76,0,0,0,.49,1.3,4.82,4.82,0,0,0,1.51,1,17.41,17.41,0,0,0,2.28.85c.88.26,1.8.56,2.72.88a25.49,25.49,0,0,1,2.75,1.17,9.53,9.53,0,0,1,2.48,1.76,8.26,8.26,0,0,1,1.76,2.63,9.27,9.27,0,0,1,.68,3.71,11.94,11.94,0,0,1-.83,4.45,10.64,10.64,0,0,1-2.4,3.64,11.24,11.24,0,0,1-3.88,2.43A16.12,16.12,0,0,1,667.63,259.21Z"/><path d="M703.24,259a1.51,1.51,0,0,1-1.51-1.5V233.64a1.5,1.5,0,0,0-1.5-1.5H694a1.51,1.51,0,0,1-1.5-1.51v-4a1.51,1.51,0,0,1,1.5-1.51h24.13a1.52,1.52,0,0,1,1.51,1.51v4a1.52,1.52,0,0,1-1.51,1.51h-6.24a1.51,1.51,0,0,0-1.51,1.5v23.83a1.5,1.5,0,0,1-1.5,1.5Z"/><path d="M751,259.21a21.45,21.45,0,0,1-3,0,20.16,20.16,0,0,1-4.59-.93,13.27,13.27,0,0,1-4.62-2.95,13,13,0,0,1-2.91-4.54,18.5,18.5,0,0,1-.88-4.23c-.07-.82-.13-2.18-.13-3v-17a1.52,1.52,0,0,1,1.51-1.51H742a1.52,1.52,0,0,1,1.51,1.51v16.95c0,.82,0,2.18.1,3a6.21,6.21,0,0,0,.31,1.45,6,6,0,0,0,1.18,2.15,5,5,0,0,0,1.86,1.33,7.13,7.13,0,0,0,5.09,0,5.09,5.09,0,0,0,1.86-1.32,6,6,0,0,0,1.18-2.14,6.8,6.8,0,0,0,.31-1.45c.06-.82.1-2.18.1-3v-17a1.52,1.52,0,0,1,1.51-1.51h5.62a1.51,1.51,0,0,1,1.5,1.51v17c0,.82-.06,2.18-.13,3a18.64,18.64,0,0,1-.88,4.24,13.06,13.06,0,0,1-2.93,4.53,13.23,13.23,0,0,1-4.61,2.95A20.21,20.21,0,0,1,751,259.21Z"/><path d="M783.13,259a1.51,1.51,0,0,1-1.51-1.5V226.59a1.52,1.52,0,0,1,1.51-1.51h10.26c.84,0,2.18.06,3,.13a25.2,25.2,0,0,1,5.67,1.15,16.55,16.55,0,0,1,5.55,3.54,16,16,0,0,1,3.58,5.37,18.74,18.74,0,0,1,0,13.51,16.09,16.09,0,0,1-3.58,5.39,16.39,16.39,0,0,1-5.55,3.54,25.93,25.93,0,0,1-5.67,1.13c-.83.07-2.17.13-3,.13Zm10.26-6.87c.84,0,2.18-.06,3-.13a8.24,8.24,0,0,0,2.21-.56,7.48,7.48,0,0,0,2.72-2,8.93,8.93,0,0,0,1.71-3.15,15.18,15.18,0,0,0,0-8.52,8.89,8.89,0,0,0-1.71-3.16,7.45,7.45,0,0,0-2.72-2,8.24,8.24,0,0,0-2.21-.56c-.83-.07-2.17-.13-3-.13h-1.58a1.51,1.51,0,0,0-1.51,1.5V250.6a1.51,1.51,0,0,0,1.51,1.5Z"/><path d="M830.84,225.08h5.67a1.5,1.5,0,0,1,1.5,1.5v30.88a1.5,1.5,0,0,1-1.5,1.5h-5.67a1.5,1.5,0,0,1-1.5-1.5V226.59A1.51,1.51,0,0,1,830.84,225.08Z"/><path d="M874,259.2a21.45,21.45,0,0,1-3,0,24.47,24.47,0,0,1-5.68-1.19,16.26,16.26,0,0,1-9.16-9.17,19.11,19.11,0,0,1,0-13.65,16.44,16.44,0,0,1,3.59-5.49,16.64,16.64,0,0,1,5.57-3.65,18.93,18.93,0,0,1,7.18-1.33,18.7,18.7,0,0,1,7.18,1.34,16.83,16.83,0,0,1,5.55,3.66,16.48,16.48,0,0,1,3.57,5.5,18.89,18.89,0,0,1,0,13.62,16.19,16.19,0,0,1-9.12,9.17A24.47,24.47,0,0,1,874,259.2Zm0-27a21.45,21.45,0,0,0-3,0,8.32,8.32,0,0,0-2.24.56,7.44,7.44,0,0,0-2.73,1.94,8.92,8.92,0,0,0-1.72,3.13,15.32,15.32,0,0,0,0,8.49,9,9,0,0,0,1.72,3.14,7.42,7.42,0,0,0,2.73,1.93,10.72,10.72,0,0,0,7.46,0,7.34,7.34,0,0,0,2.71-1.93,9,9,0,0,0,1.72-3.14,15.08,15.08,0,0,0,0-8.49,8.92,8.92,0,0,0-1.72-3.13,7.32,7.32,0,0,0-2.72-1.94A8.15,8.15,0,0,0,874,232.15Z"/><path d="M917.18,259.21a25,25,0,0,1-3,0,13.53,13.53,0,0,1-1.72-.24,19.79,19.79,0,0,1-3.16-.92,17.86,17.86,0,0,1-2.88-1.4,9.9,9.9,0,0,1-1.24-.85c-.63-.54-1.2-1.05-1.27-1.13s.21-.71.66-1.41l.86-1.37c.44-.7,1-1.55,1.31-1.89l.37-.2a2.49,2.49,0,0,1,1.22-.31,3.13,3.13,0,0,1,1.63.5l1.54.94a12.26,12.26,0,0,0,1.92.91,6.92,6.92,0,0,0,2.49.4,4.63,4.63,0,0,0,2.91-.8,3,3,0,0,0,1-2.51,2.28,2.28,0,0,0-.51-1.55,4.6,4.6,0,0,0-1.49-1.07,16.38,16.38,0,0,0-2.26-.81c-.88-.24-1.79-.51-2.71-.8a20.27,20.27,0,0,1-2.75-1.11,9.08,9.08,0,0,1-2.47-1.79,8.61,8.61,0,0,1-1.77-2.78,11,11,0,0,1-.67-4.06,9.86,9.86,0,0,1,3.09-7.11,11.29,11.29,0,0,1,3.71-2.31,13.63,13.63,0,0,1,5-.86,17.58,17.58,0,0,1,3,.25,15.42,15.42,0,0,1,2.81.72,16.16,16.16,0,0,1,2.49,1.14,10.5,10.5,0,0,1,.92.57c.64.53,1.23,1,1.31,1.09a3.78,3.78,0,0,1-.57,1.46l-.66,1.23a21.35,21.35,0,0,1-1.27,2.09l-.3.21a2,2,0,0,1-1.25.37,2.83,2.83,0,0,1-1.36-.39l-1.35-.73a10.63,10.63,0,0,0-1.65-.7,6.46,6.46,0,0,0-2.05-.3,4.32,4.32,0,0,0-2.86.79,2.59,2.59,0,0,0-.88,2.09,1.76,1.76,0,0,0,.49,1.3,4.7,4.7,0,0,0,1.51,1,17.41,17.41,0,0,0,2.28.85c.88.26,1.8.56,2.72.88a25.49,25.49,0,0,1,2.75,1.17,9.7,9.7,0,0,1,2.48,1.76,8.43,8.43,0,0,1,1.76,2.63,9.27,9.27,0,0,1,.68,3.71,11.94,11.94,0,0,1-.83,4.45,10.64,10.64,0,0,1-2.4,3.64,11.24,11.24,0,0,1-3.88,2.43A16.27,16.27,0,0,1,917.18,259.21Z"/></g></svg>